<?xml version="1.0" encoding="utf-8"?>
<!-- Generator: Adobe Illustrator 26.0.2, SVG Export Plug-In . SVG Version: 6.00 Build 0)  -->
<svg version="1.1" id="Layer_1" xmlns="http://www.w3.org/2000/svg" xmlns:xlink="http://www.w3.org/1999/xlink" x="0px" y="0px"
	 viewBox="0 0 64 64" style="enable-background:new 0 0 64 64;" xml:space="preserve">
<style type="text/css">
	.st0{clip-path:url(#SVGID_00000044163728560746506920000018204499320054278789_);}
	.st1{clip-path:url(#SVGID_00000044159942875237571080000006885142039754121354_);fill:#2D127E;}
	.st2{clip-path:url(#SVGID_00000140735015024517146940000016072054006471113649_);}
	.st3{clip-path:url(#SVGID_00000124145170880393812390000013432268056067681727_);fill:#2D127E;}
	.st4{clip-path:url(#SVGID_00000102526652771053790960000016533972059786761102_);}
	.st5{clip-path:url(#SVGID_00000145016358414829871440000011462636830408217791_);fill:#2D127E;}
</style>
<g>
	<g>
		<defs>
			<path id="SVGID_1_" d="M14.16,15.04l12.68,4.23c0.28,0.09,0.47,0.36,0.47,0.66v23.63c0,0.29-0.18,0.55-0.45,0.65l-12.68,4.76
				c-0.36,0.13-0.76-0.05-0.89-0.4c-0.03-0.08-0.04-0.16-0.04-0.24V15.69c0-0.38,0.31-0.69,0.69-0.69
				C14.01,15,14.09,15.01,14.16,15.04z"/>
		</defs>
		<clipPath id="SVGID_00000138546353990313149890000018234862962295945905_">
			<use xlink:href="#SVGID_1_"  style="overflow:visible;"/>
		</clipPath>
		<g style="clip-path:url(#SVGID_00000138546353990313149890000018234862962295945905_);">
			<defs>
				<rect id="SVGID_00000104683851290965348740000010839485232923782284_" x="-130.58" y="-40.59" width="325" height="186.7"/>
			</defs>
			<clipPath id="SVGID_00000061435219273051014310000009974281684669510540_">
				<use xlink:href="#SVGID_00000104683851290965348740000010839485232923782284_"  style="overflow:visible;"/>
			</clipPath>
			
				<rect x="12.9" y="14.65" style="clip-path:url(#SVGID_00000061435219273051014310000009974281684669510540_);fill:#2D127E;" width="14.76" height="34.78"/>
		</g>
	</g>
	<g>
		<defs>
			<path id="SVGID_00000129898481310871009440000007683710922498043034_" d="M32.75,15.11l8.34,4.17c0.18,0.09,0.29,0.27,0.29,0.46
				v23.99c0,0.19-0.1,0.36-0.26,0.45l-8.34,4.69c-0.25,0.14-0.57,0.05-0.71-0.2C32.02,48.6,32,48.51,32,48.42V15.57
				c0-0.29,0.23-0.52,0.52-0.52C32.6,15.05,32.68,15.07,32.75,15.11z"/>
		</defs>
		<clipPath id="SVGID_00000114757144465607335990000001051993642821418903_">
			<use xlink:href="#SVGID_00000129898481310871009440000007683710922498043034_"  style="overflow:visible;"/>
		</clipPath>
		<g style="clip-path:url(#SVGID_00000114757144465607335990000001051993642821418903_);">
			<defs>
				<rect id="SVGID_00000067944024857564975520000016687421405158099610_" x="-130.58" y="-40.59" width="325" height="186.7"/>
			</defs>
			<clipPath id="SVGID_00000043429412334637962510000004684531574541131153_">
				<use xlink:href="#SVGID_00000067944024857564975520000016687421405158099610_"  style="overflow:visible;"/>
			</clipPath>
			
				<rect x="31.65" y="14.71" style="clip-path:url(#SVGID_00000043429412334637962510000004684531574541131153_);fill:#2D127E;" width="10.07" height="34.65"/>
		</g>
	</g>
	<g>
		<defs>
			<path id="SVGID_00000083083166940599129580000015797878201944438206_" d="M46.65,15.32l4,4c0.06,0.06,0.1,0.15,0.1,0.24V43.9
				c0,0.08-0.03,0.17-0.09,0.23l-4,4.5c-0.13,0.14-0.35,0.16-0.49,0.03c-0.07-0.07-0.12-0.16-0.12-0.26V15.57
				c0-0.19,0.15-0.35,0.35-0.35C46.5,15.22,46.59,15.26,46.65,15.32z"/>
		</defs>
		<clipPath id="SVGID_00000021801076767696185710000012152357161420789940_">
			<use xlink:href="#SVGID_00000083083166940599129580000015797878201944438206_"  style="overflow:visible;"/>
		</clipPath>
		<g style="clip-path:url(#SVGID_00000021801076767696185710000012152357161420789940_);">
			<defs>
				<rect id="SVGID_00000150082145163675986780000005504042592356763283_" x="-130.58" y="-40.59" width="325" height="186.7"/>
			</defs>
			<clipPath id="SVGID_00000128461022455433574930000006179117373454740396_">
				<use xlink:href="#SVGID_00000150082145163675986780000005504042592356763283_"  style="overflow:visible;"/>
			</clipPath>
			
				<rect x="45.72" y="14.88" style="clip-path:url(#SVGID_00000128461022455433574930000006179117373454740396_);fill:#2D127E;" width="5.38" height="34.25"/>
		</g>
	</g>
</g>
</svg>
